<?xml version="1.0" encoding="UTF-8" standalone="no"?>
<!DOCTYPE svg PUBLIC "-//W3C//DTD SVG 1.1//EN" "http://www.w3.org/Graphics/SVG/1.1/DTD/svg11.dtd">
<svg width="100%" height="100%" viewBox="0 0 1182 1182" version="1.1" xmlns="http://www.w3.org/2000/svg" xmlns:xlink="http://www.w3.org/1999/xlink" xml:space="preserve" xmlns:serif="http://www.serif.com/" style="fill-rule:evenodd;clip-rule:evenodd;stroke-linecap:round;stroke-linejoin:round;stroke-miterlimit:1.5;">
    <g transform="matrix(2.70359,0,0,2.70359,-895.888,-938.355)">
        <path d="M549.415,566.28C549.415,566.28 636.165,714.023 636.945,715.099" style="fill:none;stroke:black;stroke-width:9.25px;"/>
    </g>
    <g transform="matrix(2.70359,0,0,2.70359,-895.888,-938.355)">
        <path d="M549.415,566.28L696.386,608.814" style="fill:none;stroke:black;stroke-width:9.25px;"/>
    </g>
    <g transform="matrix(2.70359,0,0,2.70359,-895.888,-938.355)">
        <path d="M427.727,666.994C427.727,666.994 548.421,565.763 549.415,566.28" style="fill:none;stroke:black;stroke-width:9.25px;"/>
    </g>
    <g transform="matrix(2.70359,0,0,2.70359,-895.888,-938.355)">
        <path d="M402.203,443.424C402.203,443.424 548.559,564.818 549.415,566.28" style="fill:none;stroke:black;stroke-width:9.25px;"/>
    </g>
    <g transform="matrix(2.70359,0,0,2.70359,-895.888,-938.355)">
        <path d="M696.386,420.232C696.386,420.232 549.293,565.213 549.415,566.28" style="fill:none;stroke:black;stroke-width:9.25px;"/>
    </g>
    <g transform="matrix(2.70359,0,0,2.70359,-910.088,-947.951)">
        <circle cx="701.638" cy="612.363" r="31.876" style="fill:rgb(238,231,7);stroke:black;stroke-width:9.25px;"/>
    </g>
    <g transform="matrix(2.70359,0,0,2.70359,-928.58,-926.579)">
        <circle cx="649.037" cy="710.744" r="32.818" style="fill:rgb(181,90,231);stroke:black;stroke-width:9.25px;"/>
    </g>
    <g transform="matrix(2.70359,0,0,2.70359,-889.802,-961.284)">
        <circle cx="425.475" cy="675.475" r="33.91" style="fill:rgb(238,100,34);stroke:black;stroke-width:9.25px;"/>
    </g>
    <g transform="matrix(2.70359,0,0,2.70359,-901.877,-955.695)">
        <circle cx="404.418" cy="449.838" r="36.111" style="fill:rgb(101,209,245);stroke:black;stroke-width:9.25px;"/>
    </g>
    <g transform="matrix(3.03185,0,0,3.03185,-1116.76,-1151.71)">
        <circle cx="693.838" cy="445.103" r="33.108" style="fill:rgb(65,220,101);stroke:black;stroke-width:8.25px;"/>
    </g>
    <g transform="matrix(2.70359,0,0,2.70359,-897.334,-983.977)">
        <circle cx="549.95" cy="583.155" r="66.804" style="fill:rgb(247,43,82);stroke:black;stroke-width:9.25px;"/>
    </g>
</svg>
